<svg width="40" height="40" viewBox="0 0 40 40" fill="none" xmlns="http://www.w3.org/2000/svg">
<path d="M24.5634 13.2868L9.50009 28.3502L8.51509 31.7102L11.8068 30.7585L26.9201 15.6452L24.5634 13.2868ZM27.1334 10.7168L29.4901 13.0735L31.6868 10.8768C31.843 10.7206 31.9307 10.5086 31.9307 10.2877C31.9307 10.0667 31.843 9.85478 31.6868 9.6985L30.5068 8.52017C30.3505 8.36395 30.1386 8.27618 29.9176 8.27618C29.6966 8.27618 29.4847 8.36395 29.3284 8.52017L27.1351 10.7168H27.1334ZM32.8651 6.1635L34.0434 7.34184C34.8245 8.1232 35.2634 9.18282 35.2634 10.2877C35.2634 11.3925 34.8245 12.4521 34.0434 13.2335L13.5568 33.7218L6.52342 35.7552C6.23674 35.8378 5.93312 35.842 5.64426 35.7673C5.35541 35.6926 5.09191 35.5417 4.88127 35.3303C4.67064 35.119 4.52059 34.855 4.4468 34.566C4.37301 34.2769 4.37817 33.9733 4.46176 33.6868L6.54175 26.5952L26.9751 6.16184C27.7565 5.38071 28.8161 4.94189 29.9209 4.94189C31.0258 4.94189 32.0854 5.38071 32.8668 6.16184L32.8651 6.1635Z" fill="#045345"/>
</svg>
