<svg width="22" height="22" viewBox="0 0 22 22" fill="none" xmlns="http://www.w3.org/2000/svg">
<path d="M16.5171 4.18693L1.88656 18.8537L1 21L3.14623 20.1134L17.8128 5.48264L16.5171 4.18693ZM19.4446 1.26002L18.8107 1.89336L20.1064 3.18907L20.7403 2.55519C20.9066 2.38875 21 2.16307 21 1.92777C21 1.69247 20.9066 1.46679 20.7403 1.30034L20.6999 1.26002C20.6175 1.17758 20.5196 1.11219 20.4119 1.06758C20.3042 1.02296 20.1888 1 20.0722 1C19.9557 1 19.8402 1.02296 19.7325 1.06758C19.6248 1.11219 19.527 1.17758 19.4446 1.26002Z" stroke="#045345" stroke-width="1.71875" stroke-linecap="round" stroke-linejoin="round"/>
</svg>
