<svg width="108" height="108" viewBox="0 0 108 108" fill="none" xmlns="http://www.w3.org/2000/svg">
<g filter="url(#filter0_d_799_183)">
<circle cx="54" cy="50" r="50" fill="#F7E600"/>
</g>
<path d="M54.1613 30.645C65.2961 30.645 74.3226 38.3005 74.3226 47.7465C74.3226 57.1905 65.2961 64.8459 54.1613 64.8459C53.0526 64.8466 51.9449 64.7698 50.8452 64.6161L42.3813 70.6398C41.4194 71.1934 41.0795 71.1329 41.475 69.7769L43.1878 62.0921C37.6578 59.0417 34 53.7556 34 47.7465C34 38.3026 43.0265 30.645 54.1613 30.645ZM65.5035 47.4854L68.326 44.5101C68.4889 44.326 68.5798 44.0804 68.5795 43.8249C68.5792 43.5694 68.4878 43.3239 68.3245 43.1403C68.1612 42.9567 67.9388 42.8492 67.7042 42.8404C67.4695 42.8317 67.2409 42.9224 67.0664 43.0935L63.3644 46.9923V43.7704C63.3644 43.5089 63.269 43.2581 63.099 43.0731C62.929 42.8882 62.6985 42.7843 62.4581 42.7843C62.2178 42.7843 61.9873 42.8882 61.8173 43.0731C61.6473 43.2581 61.5518 43.5089 61.5518 43.7704V49.113C61.5179 49.2654 61.5179 49.4244 61.5518 49.5768V52.5834C61.5518 52.845 61.6473 53.0958 61.8173 53.2808C61.9873 53.4657 62.2178 53.5696 62.4581 53.5696C62.6985 53.5696 62.929 53.4657 63.099 53.2808C63.269 53.0958 63.3644 52.845 63.3644 52.5834V49.7356L64.1843 48.8727L66.9263 53.1204C66.9947 53.2264 67.0817 53.3168 67.1823 53.3862C67.2828 53.4557 67.3949 53.5029 67.5123 53.5253C67.6296 53.5476 67.7498 53.5445 67.866 53.5163C67.9823 53.488 68.0922 53.4352 68.1897 53.3607C68.2872 53.2862 68.3702 53.1915 68.434 53.0821C68.4979 52.9727 68.5413 52.8507 68.5618 52.723C68.5823 52.5954 68.5795 52.4646 68.5535 52.3381C68.5276 52.2116 68.479 52.0919 68.4105 51.9859L65.5035 47.4833V47.4854ZM59.8237 51.5053H57.0204V43.8018C57.0096 43.5484 56.9096 43.3092 56.7409 43.134C56.5723 42.9588 56.3482 42.861 56.115 42.861C55.8819 42.861 55.6577 42.9588 55.4891 43.134C55.3205 43.3092 55.2204 43.5484 55.2097 43.8018V52.4915C55.2097 53.0347 55.6129 53.4777 56.1141 53.4777H59.8237C60.0641 53.4777 60.2946 53.3738 60.4646 53.1888C60.6345 53.0039 60.73 52.753 60.73 52.4915C60.73 52.2299 60.6345 51.9791 60.4646 51.7941C60.2946 51.6092 60.0641 51.5053 59.8237 51.5053V51.5053ZM48.5776 49.2237L49.914 45.6572L51.139 49.2237H48.5776V49.2237ZM53.422 50.2433L53.4259 50.2099C53.4254 49.9614 53.3383 49.7225 53.182 49.5413L51.1736 43.6911C51.0894 43.4123 50.929 43.1681 50.7139 42.9911C50.4988 42.8141 50.2391 42.7128 49.9697 42.7007C49.6982 42.6994 49.4329 42.7881 49.2089 42.9549C48.9849 43.1217 48.8129 43.3588 48.7158 43.6346L45.5265 52.1488C45.4815 52.2687 45.4586 52.3971 45.4592 52.5266C45.4598 52.6561 45.4838 52.7843 45.5299 52.9037C45.576 53.0231 45.6433 53.1315 45.7278 53.2226C45.8124 53.3137 45.9127 53.3859 46.0228 53.4348C46.133 53.4838 46.251 53.5087 46.37 53.5081C46.4891 53.5074 46.6068 53.4813 46.7166 53.4311C46.8263 53.381 46.9259 53.3078 47.0096 53.2158C47.0934 53.1237 47.1597 53.0146 47.2047 52.8947L47.8383 51.1961H51.813L52.3871 52.8676C52.4261 52.9925 52.4878 53.1077 52.5685 53.2062C52.6492 53.3047 52.7472 53.3846 52.8568 53.4412C52.9663 53.4977 53.0852 53.5298 53.2064 53.5354C53.3275 53.5411 53.4485 53.5202 53.5621 53.4741C53.6757 53.4279 53.7797 53.3574 53.8678 53.2668C53.9559 53.1761 54.0264 53.0671 54.0751 52.9463C54.1239 52.8254 54.1498 52.6952 54.1514 52.5632C54.153 52.4312 54.1302 52.3003 54.0845 52.1781L53.422 50.2433V50.2433ZM47.0434 43.8122C47.0434 43.551 46.9482 43.3005 46.7786 43.1156C46.6091 42.9308 46.379 42.8266 46.139 42.8261H39.9082C39.6679 42.8261 39.4373 42.93 39.2674 43.1149C39.0974 43.2998 39.0019 43.5507 39.0019 43.8122C39.0019 44.0738 39.0974 44.3246 39.2674 44.5096C39.4373 44.6945 39.6679 44.7984 39.9082 44.7984H42.1356V52.6043C42.1356 52.8659 42.231 53.1167 42.401 53.3016C42.571 53.4866 42.8015 53.5905 43.0419 53.5905C43.2822 53.5905 43.5127 53.4866 43.6827 53.3016C43.8527 53.1167 43.9482 52.8659 43.9482 52.6043V44.7984H46.1371C46.3775 44.7984 46.608 44.6945 46.7779 44.5096C46.9479 44.3246 47.0434 44.0738 47.0434 43.8122V43.8122Z" fill="#3A1D1D"/>
<defs>
<filter id="filter0_d_799_183" x="0" y="0" width="108" height="108" filterUnits="userSpaceOnUse" color-interpolation-filters="sRGB">
<feFlood flood-opacity="0" result="BackgroundImageFix"/>
<feColorMatrix in="SourceAlpha" type="matrix" values="0 0 0 0 0 0 0 0 0 0 0 0 0 0 0 0 0 0 127 0" result="hardAlpha"/>
<feOffset dy="4"/>
<feGaussianBlur stdDeviation="2"/>
<feComposite in2="hardAlpha" operator="out"/>
<feColorMatrix type="matrix" values="0 0 0 0 0 0 0 0 0 0 0 0 0 0 0 0 0 0 0.25 0"/>
<feBlend mode="normal" in2="BackgroundImageFix" result="effect1_dropShadow_799_183"/>
<feBlend mode="normal" in="SourceGraphic" in2="effect1_dropShadow_799_183" result="shape"/>
</filter>
</defs>
</svg>
