<svg width="17" height="18" viewBox="0 0 17 18" fill="none" xmlns="http://www.w3.org/2000/svg">
<path d="M11.119 1.27266C10.3588 0.451953 9.2971 0 8.12522 0C6.9471 0 5.88186 0.449219 5.12522 1.26484C4.36038 2.08945 3.98772 3.21016 4.07522 4.42031C4.24866 6.80781 6.06546 8.75 8.12522 8.75C10.185 8.75 11.9987 6.8082 12.1748 4.42109C12.2635 3.22187 11.8885 2.10352 11.119 1.27266ZM15.0002 17.5H1.25022C1.07025 17.5023 0.892015 17.4645 0.728491 17.3893C0.564966 17.3141 0.420264 17.2034 0.304911 17.0652C0.0510047 16.7617 -0.0513391 16.3473 0.0244422 15.9281C0.35413 14.0992 1.38304 12.5629 3.00022 11.4844C4.43694 10.527 6.25686 10 8.12522 10C9.99358 10 11.8135 10.5273 13.2502 11.4844C14.8674 12.5625 15.8963 14.0988 16.226 15.9277C16.3018 16.3469 16.1994 16.7613 15.9455 17.0648C15.8302 17.2031 15.6855 17.3139 15.522 17.3891C15.3585 17.4644 15.1802 17.5023 15.0002 17.5Z" fill="black" fill-opacity="0.7"/>
</svg>
